<?xml version="1.0" standalone="no"?><!-- Generator: Gravit.io --><svg xmlns="http://www.w3.org/2000/svg" xmlns:xlink="http://www.w3.org/1999/xlink" style="isolation:isolate" viewBox="591.244 296.855 369.513 339.291" width="369.513" height="339.291"><defs><clipPath id="_clipPath_rlGNNikhySAg42dFCdvhlRU4d02X1MrA"><rect x="591.244" y="296.855" width="369.513" height="339.291"/></clipPath></defs><g clip-path="url(#_clipPath_rlGNNikhySAg42dFCdvhlRU4d02X1MrA)"><path d=" M 625.055 296.855 L 926.945 296.855 C 945.606 296.855 960.756 312.005 960.756 330.666 L 960.756 602.334 C 960.756 620.995 945.606 636.145 926.945 636.145 L 625.055 636.145 C 606.394 636.145 591.244 620.995 591.244 602.334 L 591.244 330.666 C 591.244 312.005 606.394 296.855 625.055 296.855 Z  M 638.882 306.689 L 913.118 306.689 C 930.413 306.689 944.453 320.73 944.453 338.024 L 944.453 594.976 C 944.453 612.27 930.413 626.311 913.118 626.311 L 638.882 626.311 C 621.587 626.311 607.547 612.27 607.547 594.976 L 607.547 338.024 C 607.547 320.73 621.587 306.689 638.882 306.689 Z " fill-rule="evenodd" fill="rgb(175,171,181)"/><path d=" M 783.102 328.5 L 863.486 328.5 C 895.285 328.5 921.102 354.317 921.102 386.116 L 921.102 546.884 C 921.102 578.683 895.285 604.5 863.486 604.5 L 783.102 604.5 L 783.102 328.5 Z  M 753.013 454.972 L 702.351 454.776 C 669.575 454.649 643.026 427.936 643.102 395.159 L 643.119 387.658 C 643.195 354.881 669.867 328.374 702.644 328.5 L 753.305 328.697 L 753.013 454.972 Z  M 631.191 478.028 L 681.852 478.224 C 714.629 478.351 741.178 505.064 741.102 537.841 L 741.084 545.342 C 741.008 578.119 714.336 604.627 681.56 604.5 L 630.898 604.303 L 631.191 478.028 Z " fill-rule="evenodd" fill="rgb(175,171,181)"/></g></svg>