<?xml version="1.0" standalone="no"?><!-- Generator: Gravit.io --><svg xmlns="http://www.w3.org/2000/svg" xmlns:xlink="http://www.w3.org/1999/xlink" style="isolation:isolate" viewBox="630.898 328.5 290.203 276" width="290.203" height="276"><defs><clipPath id="_clipPath_SpO9EAJCyyZg8co7YssrtKOUSzcVYRFF"><rect x="630.898" y="328.5" width="290.203" height="276"/></clipPath></defs><g clip-path="url(#_clipPath_SpO9EAJCyyZg8co7YssrtKOUSzcVYRFF)"><path d=" M 783.102 328.5 L 863.486 328.5 C 895.285 328.5 921.102 354.317 921.102 386.116 L 921.102 546.884 C 921.102 578.683 895.285 604.5 863.486 604.5 L 783.102 604.5 L 783.102 328.5 Z  M 753.013 454.972 L 702.351 454.776 C 669.575 454.649 643.026 427.936 643.102 395.159 L 643.119 387.658 C 643.195 354.881 669.867 328.374 702.644 328.5 L 753.305 328.697 L 753.013 454.972 Z  M 631.191 478.028 L 681.852 478.224 C 714.629 478.351 741.178 505.064 741.102 537.841 L 741.084 545.342 C 741.008 578.119 714.336 604.627 681.56 604.5 L 630.898 604.303 L 631.191 478.028 Z " fill-rule="evenodd" fill="rgb(175,171,181)"/></g></svg>