<?xml version="1.0" encoding="utf-8"?>
<!-- Generator: Adobe Illustrator 24.0.1, SVG Export Plug-In . SVG Version: 6.00 Build 0)  -->
<svg version="1.1" id="Layer_1" xmlns="http://www.w3.org/2000/svg" xmlns:xlink="http://www.w3.org/1999/xlink" x="0px" y="0px"
	 viewBox="0 0 288 222" style="enable-background:new 0 0 288 222;" xml:space="preserve">
<style type="text/css">
	.st0{fill:#020203;}
	.st1{fill:#FFFFFF;}
</style>
<g>
	<path class="st0" d="M124.1,91.1c0-5.7-0.3-11.1-1-15.8c-0.7-4.7-1.7-8.7-3.4-12.1c-1.7-3.4-3.7-5.7-6.7-7.7
		c-2.7-1.7-6.4-2.7-10.8-2.7c-4.7,0-8.8,0.7-11.8,2.4c-3,1.7-5.7,3.7-7.4,6.4c-1.3,1.7-2.7,3.7-3.4,5.7c-0.7,2-1.3,4.4-2,7.4
		c-0.7,2.7-1,6-1,9.7c0,3.7-0.3,7.7-0.3,12.8c0,4.4,0.3,8.4,1,13.1c0.7,4.4,2,8.4,3.7,12.1c1.7,3.7,4.4,6.4,7.4,8.7
		c3.4,2.4,7.7,3.4,13.1,3.4c5.4,0,9.4-1,12.5-3c3-2,5.4-5,7.1-8.7c1.7-3.7,2.4-8.4,3-13.8C124.1,103.5,124.1,97.5,124.1,91.1z
		 M45,185.8h14.8V55.5H45v-2.7h31v16.1h0.3c2-5.4,5.1-9.7,9.4-13.1c4.4-3.7,10.1-5.4,17.2-5.4c5.4,0,10.8,1.3,15.5,3.7
		c4.7,2.4,9.1,5.4,12.8,9.4c3.7,3.7,6.7,8.4,8.8,13.4c2,5,3.4,10.7,3.4,16.5c0,5.7-1,11.4-3.4,16.8c-2,5.4-5.1,9.7-9.1,14.1
		c-3.7,4-8.4,7.4-13.5,9.7c-5.1,2.4-10.4,3.7-15.8,3.7c-4.4,0-8.1-0.7-11.1-2.4c-3-1.3-5.4-3-7.4-5c-2-2-3.4-4-4.4-6c-1-2-1.7-4-2-5
		h-0.3v66.8h14.8v2.7H45V185.8z"/>
	<path class="st0" d="M210,82.7c0-2.4,0-5.7,0-9.4c0-3-0.3-5.7-0.7-8.4c-0.3-2.4-1-4.4-2-6c-1-1.7-2.4-3-4.4-4c-2-1-4.7-1.3-8.1-1.3
		h-16.2v-3h16.2c5.7,0,10.8,0.7,14.8,2.4c4,1.3,7.1,3.4,9.4,6c2.4,2.4,4,5.4,5.1,8.4c1,3,1.7,6.4,1.7,9.7v47.7c0,3.7,0.7,6,1.7,7.4
		c1,1.3,2.7,2,5.1,2c1.3,0,3-0.3,4.4-0.7c1.7-0.7,3-1.3,4.4-2.4l1.7,2c-1.7,1.3-3.7,2.4-6.1,3.4c-2.4,1-5.1,1.7-8.4,1.7
		c-6.1,0-10.8-1.3-13.5-3.7c-2.7-2.7-5.4-6-5.7-11.1L210,82.7z"/>
	<path class="st0" d="M173.6,104.2c5.4,0,9.8-4.4,9.8-9.7c0-5.4-4.4-9.7-9.8-9.7c-5.4,0-9.8,4.4-9.8,9.7
		C163.8,99.8,168.2,104.2,173.6,104.2z"/>
</g>
</svg>
